<svg xmlns="http://www.w3.org/2000/svg" version="1.1" xmlns:xlink="http://www.w3.org/1999/xlink" xmlns:svgjs="http://svgjs.dev/svgjs" width="2000" height="1500" viewBox="0 0 2000 1500"><rect width="2000" height="1500" fill="#f5ff00"></rect><g transform="matrix(0.75,0,0,0.75,249.090909090909,288.94506545392255)"><svg viewBox="0 0 396 243" data-background-color="#f5ff00" preserveAspectRatio="xMidYMid meet" height="1227" width="2000" xmlns="http://www.w3.org/2000/svg" xmlns:xlink="http://www.w3.org/1999/xlink"><g id="tight-bounds" transform="matrix(1,0,0,1,0.2400000000000091,0.24555728845078306)"><svg viewBox="0 0 395.52 242.50888542309843" height="242.50888542309843" width="395.52"><g><svg viewBox="0 0 397.4975999999999 243.7214298502139" height="242.50888542309843" width="395.52"><g><svg viewBox="0 0 397.4975999999999 243.7214298502139" height="243.7214298502139" width="397.4975999999999"><g id="textblocktransform"><svg viewBox="0 0 397.4975999999999 243.7214298502139" height="243.7214298502139" width="397.4975999999999" id="textblock"><g><rect width="397.4975999999999" height="13.335559585208518" x="0" y="163.58486659695217" fill="#000000" opacity="1" stroke-width="0" stroke="transparent" fill-opacity="1" class="rect-qz-0" data-fill-palette-color="primary" rx="1%" id="qz-0" data-palette-color="#000000"></rect></g><g transform="matrix(1,0,0,1,0.9887999999999693,0)"><svg viewBox="0 0 395.52 147.87543776620916" height="147.87543776620916" width="395.52"><g transform="matrix(1,0,0,1,0,0)"><svg width="395.52" viewBox="1.05 -34.35 105.64 39.5" height="147.87543776620916" data-palette-color="#000000"><path d="M22.25-31.25L22.25-31.25 22.15-34Q22.15-34.35 22.35-34.35L22.35-34.35Q22.4-34.35 22.5-34.1L22.5-34.1Q22.8-32.45 22.8-30.25 22.8-28.05 22.55-25.4L22.55-25.4Q23.05-25.4 27.35-24.5L27.35-24.5Q31.8-31.95 37.15-31.95L37.15-31.95Q40.35-31.95 40.35-29.25L40.35-29.25Q40.35-28.75 40.18-28.75 40-28.75 40-29.15L40-29.15Q40-31.1 37.4-31.1L37.4-31.1Q33.8-31.1 29.8-24.05L29.8-24.05Q34.85-23.1 37.5-23.1L37.5-23.1Q42.4-23.1 42.4-25.5L42.4-25.5Q42.4-25.95 42.25-26.18 42.1-26.4 42.1-26.53 42.1-26.65 42.2-26.65L42.2-26.65Q42.5-26.65 42.75-25.93 43-25.2 43-24.7L43-24.7Q43-21.65 38.1-21.65L38.1-21.65Q35.3-21.65 29.15-23L29.15-23 24.15-12.75Q25.6-13.55 30.08-13.55 34.55-13.55 37.65-12.6L37.65-12.6Q37.9-12.5 37.9-12.38 37.9-12.25 37.7-12.25L37.7-12.25 34.6-12.5Q30.95-12.5 28.25-11.95L28.25-11.95Q23.5-11.1 23.5-9.05L23.5-9.05 23.75-8.1Q23.35-8.1 23.15-8.75L23.15-8.75Q22.75-9.35 22.7-9.85L22.7-9.85Q19.3-3.25 16.5-0.1L16.5-0.1Q11.8 5.15 6.75 5.15L6.75 5.15Q4.65 5.15 3.1 4.35L3.1 4.35Q1.05 3.4 1.05 1.4 1.05-0.6 3.3-1.75L3.3-1.75Q5-2.65 7.3-2.65L7.3-2.65Q7.75-2.65 7.75-2.5 7.75-2.35 7.3-2.35L7.3-2.35Q5.4-2.35 4-1.55L4-1.55Q2.2-0.65 2.2 1.03 2.2 2.7 3.48 3.48 4.75 4.25 6.3 4.25L6.3 4.25Q10.6 4.25 14.1 0.35L14.1 0.35Q16.65-2.55 19.05-7.25L19.05-7.25Q21-11.3 22.93-15.65 24.85-20 26.8-23.5L26.8-23.5 22.45-24.45Q21.85-19.45 20.03-13.73 18.2-8 15.35-3.8L15.35-3.8Q11.05 2.6 6.05 2.6L6.05 2.6Q5.1 2.6 5.1 2.25L5.1 2.25Q5.1 2 5.95 2L5.95 2Q10.45 2 14.65-4.3L14.65-4.3Q17.6-8.8 19.35-14.25 21.1-19.7 21.75-24.6L21.75-24.6Q15.3-25.95 11.6-25.95L11.6-25.95Q3.55-25.95 3.55-20.4L3.55-20.4Q3.55-16.7 7.8-13.75L7.8-13.75Q8-13.7 8-13.55 8-13.4 7.88-13.4 7.75-13.4 7.55-13.5L7.55-13.5Q1.95-16.7 1.95-21.15L1.95-21.15Q1.95-24.3 5-25.8L5-25.8Q7.35-26.9 11.08-26.9 14.8-26.9 21.85-25.55L21.85-25.55Q22.25-28.65 22.25-31.25ZM48.85-9.8L48.85-9.8 49-10.75Q49-11.55 48.47-12.08 47.95-12.6 47.25-12.6L47.25-12.6Q46.65-6.5 44.3-3.25L44.3-3.25 45.85-3.25Q45.2-2.85 44.87-2.85 44.55-2.85 44.42-2.9 44.3-2.95 44.15-2.95L44.15-2.95Q44.2-2.9 43.87-2.63 43.55-2.35 42-1 40.45 0.35 39.1 0.35L39.1 0.35Q37.15 0.35 37.15-2.15L37.15-2.15Q37.15-5.2 39.45-8.4L39.45-8.4Q38.65-10.35 38.65-12.53 38.65-14.7 39.5-16.3L39.5-16.3Q41.15-19.45 43.6-19.45L43.6-19.45Q46.7-19.45 47.2-14.15L47.2-14.15Q49.7-14.05 49.7-11.55L49.7-11.55Q49.7-9.5 49.05-9.5L49.05-9.5Q48.85-9.5 48.85-9.8ZM43.65-18.35L43.65-18.35Q42.05-18.35 40.7-15.2L40.7-15.2Q39.85-13.3 39.85-11.55 39.85-9.8 40-8.95L40-8.95Q43.05-13.05 46.4-14.05L46.4-14.05Q45.4-18.35 43.65-18.35ZM46.45-12.65L46.45-12.65Q45.35-12.5 43.02-10.63 40.7-8.75 40.15-7.65L40.15-7.65Q41.2-3.85 42.7-3.5L42.7-3.5Q43.9-4.6 45.17-7.85 46.45-11.1 46.45-12.65ZM39.8-7.2L39.8-7.2Q38.15-4.4 38.15-2.78 38.15-1.15 39.25-1.15L39.25-1.15Q40.6-1.15 42.5-3.25L42.5-3.25Q40.85-3.45 39.8-7.2ZM62.75-9.8L62.75-9.8 62.9-10.75Q62.9-11.55 62.37-12.08 61.85-12.6 61.15-12.6L61.15-12.6Q60.55-6.5 58.2-3.25L58.2-3.25 59.75-3.25Q59.1-2.85 58.77-2.85 58.45-2.85 58.32-2.9 58.2-2.95 58.05-2.95L58.05-2.95Q58.1-2.9 57.77-2.63 57.45-2.35 55.9-1 54.35 0.35 53 0.35L53 0.35Q51.05 0.35 51.05-2.15L51.05-2.15Q51.05-5.2 53.35-8.4L53.35-8.4Q52.55-10.35 52.55-12.53 52.55-14.7 53.4-16.3L53.4-16.3Q55.05-19.45 57.5-19.45L57.5-19.45Q60.6-19.45 61.1-14.15L61.1-14.15Q63.6-14.05 63.6-11.55L63.6-11.55Q63.6-9.5 62.95-9.5L62.95-9.5Q62.75-9.5 62.75-9.8ZM57.55-18.35L57.55-18.35Q55.95-18.35 54.6-15.2L54.6-15.2Q53.75-13.3 53.75-11.55 53.75-9.8 53.9-8.95L53.9-8.95Q56.95-13.05 60.3-14.05L60.3-14.05Q59.3-18.35 57.55-18.35ZM60.35-12.65L60.35-12.65Q59.25-12.5 56.92-10.63 54.6-8.75 54.05-7.65L54.05-7.65Q55.1-3.85 56.6-3.5L56.6-3.5Q57.8-4.6 59.07-7.85 60.35-11.1 60.35-12.65ZM53.7-7.2L53.7-7.2Q52.05-4.4 52.05-2.78 52.05-1.15 53.15-1.15L53.15-1.15Q54.5-1.15 56.4-3.25L56.4-3.25Q54.75-3.45 53.7-7.2ZM80.39-18.8L80.39-18.8Q80.99-18.65 80.99-17.82 80.99-17 79.72-14.9 78.44-12.8 77.74-12.3L77.74-12.3Q76.79-10.35 76.07-7.43 75.34-4.5 75.34-2.25 75.34 0 76.64 0L76.64 0Q78.19 0 80.29-2.7L80.29-2.7Q80.99-3.5 82.99-6.75L82.99-6.75Q83.19-7.05 83.34-7.05 83.49-7.05 83.49-6.9L83.49-6.9 83.39-6.6Q79.54 0.85 76.19 0.85L76.19 0.85Q73.29 0.85 73.29-3.35L73.29-3.35Q73.29-5.4 74.19-9.45L74.19-9.45Q72.29-5.8 70.84-3.7L70.84-3.7Q68.14 0 65.84 0 63.54 0 63.54-3.1L63.54-3.1Q63.54-7.85 68.59-13.2 73.64-18.55 78.49-19.1L78.49-19.1Q82.14-28.05 84.74-33.1L84.74-33.1Q85.59-34.25 87.44-34.25L87.44-34.25Q88.14-34.25 88.14-33.9L88.14-33.9Q84.24-26.55 80.39-18.8ZM64.79-4.05L64.79-4.05Q64.79-1.85 66.14-1.85L66.14-1.85Q69.79-1.85 73.29-10L73.29-10Q72.29-9.7 71.92-9.7 71.54-9.7 71.54-9.93 71.54-10.15 72.22-10.38 72.89-10.6 73.89-11.3L73.89-11.3Q74.34-12.5 74.62-13.35 74.89-14.2 75.09-14.2L75.09-14.2Q75.44-14.2 75.44-13.75 75.44-13.3 74.99-12.1L74.99-12.1 75.89-12.75 77.99-17.95Q74.19-17.1 69.49-12.4 64.79-7.7 64.79-4.05ZM91.99-6.85L91.99-6.85Q92.09-6.85 92.09-6.75L92.09-6.75Q92.09-5.9 89.34-3L89.34-3Q87.14-0.8 85.99-0.8L85.99-0.8Q83.44-0.8 83.44-3.35L83.44-3.35Q83.44-5.25 84.44-8.15L84.44-8.15 83.54-6.75Q82.89-5.65 82.64-5.65L82.64-5.65Q82.54-5.65 82.54-5.93 82.54-6.2 83.29-7.2 84.04-8.2 85.49-11.3L85.49-11.3Q85.89-12.35 86.59-13.65L86.59-13.65Q86.84-14.1 87.77-14.1 88.69-14.1 88.69-13.6 88.69-13.1 88.19-12.1 87.69-11.1 87.34-10.95L87.34-10.95Q84.74-5.75 84.74-3.3L84.74-3.3Q84.74-1.65 85.84-1.65L85.84-1.65Q87.64-1.65 89.79-4.25L89.79-4.25Q90.69-5.3 90.89-5.53 91.09-5.75 91.29-6 91.49-6.25 91.64-6.4L91.64-6.4Q91.89-6.65 91.99-6.85ZM90.44-20.45Q91.54-20.95 91.79-20.95 92.04-20.95 92.04-20.83 92.04-20.7 90.89-19.4L90.89-19.4 90.14-17.85Q89.69-16.85 88.99-16.85L88.99-16.85Q87.99-16.85 87.99-17.9L87.99-17.9Q87.99-18.4 88.67-19.18 89.34-19.95 90.44-20.45ZM106.64-6.8L106.64-6.8Q106.69-6.8 106.69-6.65 106.69-6.5 106.29-5.8L106.29-5.8Q104.74-3.3 101.79-1.18 98.84 0.95 96.24 0.95L96.24 0.95Q92.69 0.95 92.69-3.65L92.69-3.65Q92.69-5.2 93.04-6.95L93.04-6.95Q92.59-7.35 92.24-8.05L92.24-8.05Q92.29-8 92.49-7.93 92.69-7.85 92.86-7.78 93.04-7.7 93.24-7.65L93.24-7.65Q93.74-10.1 96.29-12.7 98.84-15.3 101.24-15.3L101.24-15.3Q101.79-15.3 101.79-15.18 101.79-15.05 101.09-14.65L101.09-14.65Q99.24-13.65 97.64-11.55L97.64-11.55Q95.94-9.45 95.19-7.35L95.19-7.35 95.29-7.25Q97.69-7.25 100.29-9.55 102.89-11.85 102.89-14.25L102.89-14.25Q102.89-14.95 102.51-15.58 102.14-16.2 101.29-16.2 100.44-16.2 99.16-15.43 97.89-14.65 97.76-14.65 97.64-14.65 97.64-14.7L97.64-14.7Q97.64-15.3 99.26-15.95 100.89-16.6 101.91-16.6 102.94-16.6 103.69-15.95 104.44-15.3 104.44-14.15L104.44-14.15Q104.44-11.5 101.16-9.15 97.89-6.8 94.99-6.55L94.99-6.55Q94.59-5.35 94.59-4.25L94.59-4.25Q94.59-0.1 97.59-0.1L97.59-0.1Q99.89-0.1 102.19-1.93 104.49-3.75 105.89-6.1L105.89-6.1Q106.34-6.8 106.64-6.8Z" opacity="1" transform="matrix(1,0,0,1,0,0)" fill="#000000" class="wordmark-text-0" data-fill-palette-color="primary" id="text-0"></path></svg></g></svg></g><g transform="matrix(1,0,0,1,0,192.6298550129037)"><svg viewBox="0 0 395.52 51.09157483731019" height="51.09157483731019" width="395.52"><g transform="matrix(1,0,0,1,0,0)"><svg width="395.52" viewBox="4.35 -41.5 460.94 59.55" height="51.09157483731019" data-palette-color="#000000"><path d="M22.75-20.7L22.75-20.7Q22.55-17.6 21.65-15.38 20.75-13.15 19.07-11.48 17.4-9.8 15-8.45 12.6-7.1 9.4-5.85L9.4-5.85Q9.4-5.55 9.38-5.23 9.35-4.9 9.35-4.55L9.35-4.55Q9.35-3.9 9.45-3.2 9.55-2.5 9.8-1.9 10.05-1.3 10.5-0.93 10.95-0.55 11.65-0.55L11.65-0.55Q13-0.55 14.3-1.15 15.6-1.75 16.78-2.63 17.95-3.5 18.98-4.53 20-5.55 20.8-6.4L20.8-6.4Q21.3-5.95 21.65-5.55L21.65-5.55Q19.4-2.55 16.73-0.58 14.05 1.4 11.65 1.95L11.65 1.95Q8.2 1.55 6.28-0.58 4.35-2.7 4.35-5.7L4.35-5.7Q4.35-7.75 4.93-9.88 5.5-12 6.53-13.98 7.55-15.95 8.93-17.7 10.3-19.45 11.88-20.75 13.45-22.05 15.13-22.8 16.8-23.55 18.45-23.55L18.45-23.55Q20.75-23.25 22.75-20.7ZM19.3-19.05L19.3-19.05Q17.95-18.85 16.5-17.95 15.05-17.05 13.78-15.55 12.5-14.05 11.45-12.05 10.4-10.05 9.8-7.75L9.8-7.75Q13.8-9.75 16.45-12.68 19.1-15.6 19.3-19.05ZM42.3-20.2L42.3-20.2Q42.8-20.2 43.47-20.03 44.15-19.85 44.7-19.58 45.25-19.3 45.62-19 46-18.7 46-18.45L46-18.45Q45-16.35 44.15-14.23 43.3-12.1 42.7-10.15 42.1-8.2 41.77-6.5 41.45-4.8 41.45-3.55L41.45-3.55Q41.45-2.15 41.75-1.23 42.05-0.3 42.75 0.1L42.75 0.1Q42.15 0.5 41.2 0.75 40.25 1 39.5 1L39.5 1Q36.8 1 36.8-2.7L36.8-2.7Q36.8-5.55 38.7-10.5L38.7-10.5Q37.7-8.2 36.4-6.18 35.1-4.15 33.75-2.6 32.4-1.05 31.02-0.08 29.65 0.9 28.5 1.1L28.5 1.1Q26.65 1 25.5-0.68 24.35-2.35 24.35-4.95L24.35-4.95Q24.35-7.75 25.55-10.85 26.75-13.95 28.62-16.6 30.5-19.25 32.7-21.03 34.9-22.8 36.95-22.9L36.95-22.9Q37.45-22.75 38.07-22.3 38.7-21.85 39.27-21.25 39.85-20.65 40.25-20.03 40.65-19.4 40.7-18.95L40.7-18.95Q38.7-18.65 36.57-17 34.45-15.35 32.72-13.03 31-10.7 29.9-8.05 28.8-5.4 28.8-3.1L28.8-3.1Q28.8-2.15 29.5-1.9L29.5-1.9Q30.95-2.2 32.85-4.38 34.75-6.55 37.45-11.1L37.45-11.1Q37.95-12 38.57-13.1 39.2-14.2 39.85-15.4 40.5-16.6 41.12-17.82 41.75-19.05 42.3-20.2ZM53.5-19.15L50.65-19.15Q50.4-19.45 50.2-20.43 50-21.4 50-22.1L50-22.1Q51.3-22 52.5-21.93 53.7-21.85 54.7-21.8L54.7-21.8Q55.45-23.3 56.32-24.78 57.2-26.25 58.02-27.48 58.85-28.7 59.57-29.55 60.3-30.4 60.7-30.65L60.7-30.65Q61.2-30.65 61.97-30.48 62.75-30.3 63.55-30.03 64.34-29.75 65-29.45 65.65-29.15 65.9-28.85L65.9-28.85Q64.4-26.95 63.32-25.33 62.25-23.7 61-21.6L61-21.6Q62-21.6 63.02-21.65 64.05-21.7 65.09-21.8L65.09-21.8Q65.34-21.55 65.5-21.18 65.65-20.8 65.65-20.4L65.65-20.4Q63.2-19.5 59.7-19.4L59.7-19.4Q58.45-17 57.47-14.63 56.5-12.25 55.82-10.05 55.15-7.85 54.77-5.9 54.4-3.95 54.4-2.4L54.4-2.4Q54.4-0.2 56.05 0.05L56.05 0.05Q57.55-0.15 58.9-0.7 60.25-1.25 61.3-2.1L61.3-2.1Q61.6-1.65 61.65-1.35L61.65-1.35Q61.35-0.9 60.62-0.3 59.9 0.3 59.05 0.88 58.2 1.45 57.4 1.85 56.6 2.25 56.2 2.3L56.2 2.3Q54.95 2.25 53.7 1.75 52.45 1.25 51.42 0.5 50.4-0.25 49.75-1.18 49.1-2.1 49.1-3L49.1-3Q49.1-4.2 49.42-6.03 49.75-7.85 50.35-10 50.95-12.15 51.75-14.5 52.55-16.85 53.5-19.15L53.5-19.15ZM77.14-0.85L77.14-0.85Q77.14-2.6 77.49-4.98 77.84-7.35 78.52-10.05 79.19-12.75 80.12-15.7 81.04-18.65 82.19-21.6L82.19-21.6Q83.19-24.25 84.52-26.95 85.84-29.65 87.39-32.25 88.94-34.85 90.62-37.2 92.29-39.55 93.99-41.5L93.99-41.5Q94.79-41.5 95.72-41.3 96.64-41.1 97.52-40.78 98.39-40.45 99.12-40 99.84-39.55 100.29-39.1L100.29-39.1Q96.54-35.25 93.54-31.33 90.54-27.4 88.79-23.95L88.79-23.95Q87.84-22.05 87.07-20.4 86.29-18.75 85.64-17.13 84.99-15.5 84.47-13.88 83.94-12.25 83.49-10.45L83.49-10.45Q93.09-22.7 97.74-22.7L97.74-22.7Q99.04-22.7 100.54-21.85 102.04-21 103.19-19.55L103.19-19.55Q101.64-17.85 99.99-15.45 98.34-13.05 96.97-10.63 95.59-8.2 94.72-6.13 93.84-4.05 93.84-3.05L93.84-3.05Q93.84-2.55 93.99-2.38 94.14-2.2 94.64-2.2L94.64-2.2Q95.39-2.2 95.84-2.4 96.29-2.6 96.39-2.6L96.39-2.6Q96.64-2.2 96.69-2.05 96.74-1.9 96.74-1.8L96.74-1.8Q96.74-1.6 96.14-1.23 95.54-0.85 94.72-0.48 93.89-0.1 93.09 0.2 92.29 0.5 91.89 0.5L91.89 0.5Q91.39 0.5 90.89 0.23 90.39-0.05 90.02-0.5 89.64-0.95 89.42-1.5 89.19-2.05 89.19-2.65L89.19-2.65Q89.19-3.4 89.62-4.88 90.04-6.35 90.79-8.33 91.54-10.3 92.59-12.65 93.64-15 94.84-17.45L94.84-17.45Q94.84-17.65 94.64-17.65L94.64-17.65Q94.49-17.65 93.87-17.25 93.24-16.85 92.69-16.45L92.69-16.45Q90.89-15.1 89.07-13.13 87.24-11.15 85.52-8.8 83.79-6.45 82.27-3.83 80.74-1.2 79.64 1.45L79.64 1.45Q79.49 1.8 79.19 2.1 78.89 2.4 78.69 2.4L78.69 2.4Q78.54 2.4 78.27 2.05 77.99 1.7 77.77 1.18 77.54 0.65 77.34 0.1 77.14-0.45 77.14-0.85ZM120.94-20.7L120.94-20.7Q120.74-17.6 119.84-15.38 118.94-13.15 117.26-11.48 115.59-9.8 113.19-8.45 110.79-7.1 107.59-5.85L107.59-5.85Q107.59-5.55 107.56-5.23 107.54-4.9 107.54-4.55L107.54-4.55Q107.54-3.9 107.64-3.2 107.74-2.5 107.99-1.9 108.24-1.3 108.69-0.93 109.14-0.55 109.84-0.55L109.84-0.55Q111.19-0.55 112.49-1.15 113.79-1.75 114.96-2.63 116.14-3.5 117.16-4.53 118.19-5.55 118.99-6.4L118.99-6.4Q119.49-5.95 119.84-5.55L119.84-5.55Q117.59-2.55 114.91-0.58 112.24 1.4 109.84 1.95L109.84 1.95Q106.39 1.55 104.46-0.58 102.54-2.7 102.54-5.7L102.54-5.7Q102.54-7.75 103.11-9.88 103.69-12 104.71-13.98 105.74-15.95 107.11-17.7 108.49-19.45 110.06-20.75 111.64-22.05 113.31-22.8 114.99-23.55 116.64-23.55L116.64-23.55Q118.94-23.25 120.94-20.7ZM117.49-19.05L117.49-19.05Q116.14-18.85 114.69-17.95 113.24-17.05 111.96-15.55 110.69-14.05 109.64-12.05 108.59-10.05 107.99-7.75L107.99-7.75Q111.99-9.75 114.64-12.68 117.29-15.6 117.49-19.05ZM140.49-20.2L140.49-20.2Q140.99-20.2 141.66-20.03 142.34-19.85 142.89-19.58 143.44-19.3 143.81-19 144.19-18.7 144.19-18.45L144.19-18.45Q143.19-16.35 142.34-14.23 141.49-12.1 140.89-10.15 140.29-8.2 139.96-6.5 139.64-4.8 139.64-3.55L139.64-3.55Q139.64-2.15 139.94-1.23 140.24-0.3 140.94 0.1L140.94 0.1Q140.34 0.5 139.39 0.75 138.44 1 137.69 1L137.69 1Q134.99 1 134.99-2.7L134.99-2.7Q134.99-5.55 136.89-10.5L136.89-10.5Q135.89-8.2 134.59-6.18 133.29-4.15 131.94-2.6 130.59-1.05 129.21-0.08 127.84 0.9 126.69 1.1L126.69 1.1Q124.84 1 123.69-0.68 122.54-2.35 122.54-4.95L122.54-4.95Q122.54-7.75 123.74-10.85 124.94-13.95 126.81-16.6 128.69-19.25 130.89-21.03 133.09-22.8 135.14-22.9L135.14-22.9Q135.64-22.75 136.26-22.3 136.89-21.85 137.46-21.25 138.04-20.65 138.44-20.03 138.84-19.4 138.89-18.95L138.89-18.95Q136.89-18.65 134.76-17 132.64-15.35 130.91-13.03 129.19-10.7 128.09-8.05 126.99-5.4 126.99-3.1L126.99-3.1Q126.99-2.15 127.69-1.9L127.69-1.9Q129.14-2.2 131.04-4.38 132.94-6.55 135.64-11.1L135.64-11.1Q136.14-12 136.76-13.1 137.39-14.2 138.04-15.4 138.69-16.6 139.31-17.82 139.94-19.05 140.49-20.2ZM146.68-3.2L146.68-3.2Q146.68-5.4 147.73-9.38 148.78-13.35 150.68-18.65L150.68-18.65Q153.78-27.1 156.51-32.73 159.23-38.35 161.83-41.5L161.83-41.5Q162.43-41.4 163.31-41 164.18-40.6 165.03-40.13 165.88-39.65 166.56-39.15 167.23-38.65 167.43-38.35L167.43-38.35Q163.53-33.75 160.58-28.45 157.63-23.15 155.18-16.3L155.18-16.3Q153.08-10.4 151.98-5.68 150.88-0.95 150.88 2.2L150.88 2.2Q150.88 3.05 150.88 3.25 150.88 3.45 150.93 3.65L150.93 3.65Q150.23 3.55 149.73 3.3 149.23 3.05 149.08 2.7L149.08 2.7Q148.98 2.45 148.53 1.98 148.08 1.5 147.73 1.25L147.73 1.25Q147.28 0.95 146.98-0.33 146.68-1.6 146.68-3.2ZM164.33-19.15L161.48-19.15Q161.23-19.45 161.03-20.43 160.83-21.4 160.83-22.1L160.83-22.1Q162.13-22 163.33-21.93 164.53-21.85 165.53-21.8L165.53-21.8Q166.28-23.3 167.16-24.78 168.03-26.25 168.86-27.48 169.68-28.7 170.41-29.55 171.13-30.4 171.53-30.65L171.53-30.65Q172.03-30.65 172.81-30.48 173.58-30.3 174.38-30.03 175.18-29.75 175.83-29.45 176.48-29.15 176.73-28.85L176.73-28.85Q175.23-26.95 174.16-25.33 173.08-23.7 171.83-21.6L171.83-21.6Q172.83-21.6 173.86-21.65 174.88-21.7 175.93-21.8L175.93-21.8Q176.18-21.55 176.33-21.18 176.48-20.8 176.48-20.4L176.48-20.4Q174.03-19.5 170.53-19.4L170.53-19.4Q169.28-17 168.31-14.63 167.33-12.25 166.66-10.05 165.98-7.85 165.61-5.9 165.23-3.95 165.23-2.4L165.23-2.4Q165.23-0.2 166.88 0.05L166.88 0.05Q168.38-0.15 169.73-0.7 171.08-1.25 172.13-2.1L172.13-2.1Q172.43-1.65 172.48-1.35L172.48-1.35Q172.18-0.9 171.46-0.3 170.73 0.3 169.88 0.88 169.03 1.45 168.23 1.85 167.43 2.25 167.03 2.3L167.03 2.3Q165.78 2.25 164.53 1.75 163.28 1.25 162.26 0.5 161.23-0.25 160.58-1.18 159.93-2.1 159.93-3L159.93-3Q159.93-4.2 160.26-6.03 160.58-7.85 161.18-10 161.78-12.15 162.58-14.5 163.38-16.85 164.33-19.15L164.33-19.15ZM176.08-0.85L176.08-0.85Q176.08-2.6 176.43-4.98 176.78-7.35 177.45-10.05 178.13-12.75 179.05-15.7 179.98-18.65 181.13-21.6L181.13-21.6Q182.13-24.25 183.45-26.95 184.78-29.65 186.33-32.25 187.88-34.85 189.55-37.2 191.23-39.55 192.93-41.5L192.93-41.5Q193.73-41.5 194.65-41.3 195.58-41.1 196.45-40.78 197.33-40.45 198.05-40 198.78-39.55 199.23-39.1L199.23-39.1Q195.48-35.25 192.48-31.33 189.48-27.4 187.73-23.95L187.73-23.95Q186.78-22.05 186-20.4 185.23-18.75 184.58-17.13 183.93-15.5 183.4-13.88 182.88-12.25 182.43-10.45L182.43-10.45Q192.03-22.7 196.68-22.7L196.68-22.7Q197.98-22.7 199.48-21.85 200.98-21 202.13-19.55L202.13-19.55Q200.58-17.85 198.93-15.45 197.28-13.05 195.9-10.63 194.53-8.2 193.65-6.13 192.78-4.05 192.78-3.05L192.78-3.05Q192.78-2.55 192.93-2.38 193.08-2.2 193.58-2.2L193.58-2.2Q194.33-2.2 194.78-2.4 195.23-2.6 195.33-2.6L195.33-2.6Q195.58-2.2 195.63-2.05 195.68-1.9 195.68-1.8L195.68-1.8Q195.68-1.6 195.08-1.23 194.48-0.85 193.65-0.48 192.83-0.1 192.03 0.2 191.23 0.5 190.83 0.5L190.83 0.5Q190.33 0.5 189.83 0.23 189.33-0.05 188.95-0.5 188.58-0.95 188.35-1.5 188.13-2.05 188.13-2.65L188.13-2.65Q188.13-3.4 188.55-4.88 188.98-6.35 189.73-8.33 190.48-10.3 191.53-12.65 192.58-15 193.78-17.45L193.78-17.45Q193.78-17.65 193.58-17.65L193.58-17.65Q193.43-17.65 192.8-17.25 192.18-16.85 191.63-16.45L191.63-16.45Q189.83-15.1 188-13.13 186.18-11.15 184.45-8.8 182.73-6.45 181.2-3.83 179.68-1.2 178.58 1.45L178.58 1.45Q178.43 1.8 178.13 2.1 177.83 2.4 177.63 2.4L177.63 2.4Q177.48 2.4 177.2 2.05 176.93 1.7 176.7 1.18 176.48 0.65 176.28 0.1 176.08-0.45 176.08-0.85ZM220.78-7.75L220.78-7.75Q219.63-4.1 218.48-1.1 217.33 1.9 216.03 4.42 214.73 6.95 213.23 9.08 211.73 11.2 209.93 13.1L209.93 13.1Q207.63 15.5 205.18 16.78 202.73 18.05 200.28 18.05L200.28 18.05Q199.03 18.05 197.8 17.78 196.58 17.5 195.5 17.03 194.43 16.55 193.6 15.93 192.78 15.3 192.43 14.6L192.43 14.6Q192.43 14 193.13 13.55L193.13 13.55Q193.73 14.1 194.13 14.4 194.53 14.7 194.9 14.9 195.28 15.1 195.7 15.15 196.13 15.2 196.68 15.2L196.68 15.2Q199.53 15.2 202.25 13.53 204.98 11.85 207.4 8.78 209.83 5.7 211.83 1.33 213.83-3.05 215.23-8.45L215.23-8.45Q214.58-7.45 213.63-6 212.68-4.55 211.53-3.13 210.38-1.7 209.15-0.55 207.93 0.6 206.78 1L206.78 1Q205.98 0.95 205.1 0.68 204.23 0.4 203.45-0.1 202.68-0.6 202.08-1.3 201.48-2 201.28-2.9L201.28-2.9Q201.28-4.35 201.38-5.23 201.48-6.1 201.73-7.15L201.73-7.15Q202.18-9.05 203.05-11.45 203.93-13.85 205.1-16.18 206.28-18.5 207.7-20.53 209.13-22.55 210.68-23.7L210.68-23.7Q211.08-23.7 211.68-23.63 212.28-23.55 212.93-23.35 213.58-23.15 214.18-22.88 214.78-22.6 215.23-22.15L215.23-22.15Q214.68-21.65 212.83-18.8 210.98-15.95 208.73-10.6L208.73-10.6Q208.48-10.05 208.13-9 207.78-7.95 207.45-6.8 207.13-5.65 206.88-4.55 206.63-3.45 206.63-2.8L206.63-2.8Q206.63-2.4 206.75-2.2 206.88-2 206.98-1.9L206.98-1.9Q207.88-2.05 209.38-3.38 210.88-4.7 212.78-7.5L212.78-7.5Q213.98-9.3 214.98-11.08 215.98-12.85 216.95-14.65 217.93-16.45 218.98-18.35 220.03-20.25 221.23-22.25L221.23-22.25Q221.88-22.25 222.63-22.1 223.38-21.95 224.08-21.73 224.78-21.5 225.3-21.23 225.83-20.95 226.08-20.65L226.08-20.65Q224.53-17.35 223.18-14.2 221.83-11.05 220.78-7.75ZM238.27-3.2L238.27-3.2Q238.27-5.4 239.32-9.38 240.37-13.35 242.27-18.65L242.27-18.65Q245.37-27.1 248.1-32.73 250.82-38.35 253.42-41.5L253.42-41.5Q254.02-41.4 254.9-41 255.77-40.6 256.62-40.13 257.47-39.65 258.15-39.15 258.82-38.65 259.02-38.35L259.02-38.35Q255.12-33.75 252.17-28.45 249.22-23.15 246.77-16.3L246.77-16.3Q244.67-10.4 243.57-5.68 242.47-0.95 242.47 2.2L242.47 2.2Q242.47 3.05 242.47 3.25 242.47 3.45 242.52 3.65L242.52 3.65Q241.82 3.55 241.32 3.3 240.82 3.05 240.67 2.7L240.67 2.7Q240.57 2.45 240.12 1.98 239.67 1.5 239.32 1.25L239.32 1.25Q238.87 0.95 238.57-0.33 238.27-1.6 238.27-3.2ZM250.17-3.35L250.17-3.35Q250.17-3.8 250.24-4.48 250.32-5.15 250.52-6.28 250.72-7.4 251.04-9 251.37-10.6 251.87-12.85L251.87-12.85Q251.97-13.35 252.32-14.45 252.67-15.55 253.24-16.78 253.82-18 254.64-19.15 255.47-20.3 256.62-20.85L256.62-20.85Q257.47-20.65 258.87-19.83 260.27-19 261.27-17.55L261.27-17.55Q260.12-16.25 259.34-14.95 258.57-13.65 257.94-12.25 257.32-10.85 256.79-9.35 256.27-7.85 255.62-6.2L255.62-6.2Q255.07-4.8 254.62-3.33 254.17-1.85 254.12-0.75L254.12-0.75Q254.12 0.15 254.09 0.53 254.07 0.9 253.82 0.9L253.82 0.9Q253.62 0.9 253.02 0.65 252.42 0.4 251.79-0.13 251.17-0.65 250.67-1.45 250.17-2.25 250.17-3.35ZM259.72-25.05L259.72-25.05Q259.72-25.35 259.87-25.95L259.87-25.95Q259.62-26.2 259.44-26.7 259.27-27.2 259.27-27.6L259.27-27.6Q259.27-28.05 259.39-28.83 259.52-29.6 259.72-30.5 259.92-31.4 260.22-32.38 260.52-33.35 260.82-34.15L260.82-34.15Q261.42-34.15 262.29-33.83 263.17-33.5 264.07-32.98 264.97-32.45 265.72-31.83 266.47-31.2 266.87-30.65L266.87-30.65Q266.32-30.1 265.42-29.13 264.52-28.15 263.67-27.08 262.82-26 262.12-25.05 261.42-24.1 261.22-23.7L261.22-23.7Q260.62-23.8 260.17-24.23 259.72-24.65 259.72-25.05ZM264.67-17.7L264.67-17.7Q264.67-18.6 264.79-19.4 264.92-20.2 265.32-20.78 265.72-21.35 266.42-21.68 267.12-22 268.27-22L268.27-22Q268.97-22 269.84-21.85 270.72-21.7 271.12-21.3L271.12-21.3Q270.92-20.45 270.79-19.8 270.67-19.15 270.59-18.38 270.52-17.6 270.47-16.53 270.42-15.45 270.37-13.75L270.37-13.75Q270.27-10.35 270.04-7.68 269.82-5 269.02-2.35L269.02-2.35Q269.02-2.15 269.17-2.15L269.17-2.15Q269.92-2.7 270.87-3.75 271.82-4.8 272.87-6.13 273.92-7.45 274.97-8.95 276.02-10.45 276.92-11.9L276.92-11.9Q278.12-14 279.57-17.15 281.02-20.3 281.97-23.9L281.97-23.9Q282.27-23.9 282.74-23.78 283.22-23.65 283.69-23.48 284.17-23.3 284.54-23.1 284.92-22.9 285.07-22.75L285.07-22.75Q284.97-20.6 284.04-18.35 283.12-16.1 281.82-14 280.52-11.9 279.07-10.05 277.62-8.2 276.42-6.85L276.42-6.85Q274.02-4.05 271.59-1.85 269.17 0.35 265.82 2.4L265.82 2.4Q264.52 1.9 263.77 1.07 263.02 0.25 263.02-0.65L263.02-0.65Q263.02-1.25 263.29-2.02 263.57-2.8 263.92-4.03 264.27-5.25 264.54-7.1 264.82-8.95 264.82-11.8L264.82-11.8Q264.82-13.45 264.74-15.13 264.67-16.8 264.67-17.7ZM302.21-20.7L302.21-20.7Q302.01-17.6 301.11-15.38 300.21-13.15 298.54-11.48 296.86-9.8 294.46-8.45 292.06-7.1 288.86-5.85L288.86-5.85Q288.86-5.55 288.84-5.23 288.81-4.9 288.81-4.55L288.81-4.55Q288.81-3.9 288.91-3.2 289.01-2.5 289.26-1.9 289.51-1.3 289.96-0.93 290.41-0.55 291.11-0.55L291.11-0.55Q292.46-0.55 293.76-1.15 295.06-1.75 296.24-2.63 297.41-3.5 298.44-4.53 299.46-5.55 300.26-6.4L300.26-6.4Q300.76-5.95 301.11-5.55L301.11-5.55Q298.86-2.55 296.19-0.58 293.51 1.4 291.11 1.95L291.11 1.95Q287.66 1.55 285.74-0.58 283.81-2.7 283.81-5.7L283.81-5.7Q283.81-7.75 284.39-9.88 284.96-12 285.99-13.98 287.01-15.95 288.39-17.7 289.76-19.45 291.34-20.75 292.91-22.05 294.59-22.8 296.26-23.55 297.91-23.55L297.91-23.55Q300.21-23.25 302.21-20.7ZM298.76-19.05L298.76-19.05Q297.41-18.85 295.96-17.95 294.51-17.05 293.24-15.55 291.96-14.05 290.91-12.05 289.86-10.05 289.26-7.75L289.26-7.75Q293.26-9.75 295.91-12.68 298.56-15.6 298.76-19.05ZM316.36-0.85L316.36-0.85Q316.36-2.6 316.71-4.98 317.06-7.35 317.73-10.05 318.41-12.75 319.33-15.7 320.26-18.65 321.41-21.6L321.41-21.6Q322.41-24.25 323.73-26.95 325.06-29.65 326.61-32.25 328.16-34.85 329.83-37.2 331.51-39.55 333.21-41.5L333.21-41.5Q334.01-41.5 334.93-41.3 335.86-41.1 336.73-40.78 337.61-40.45 338.33-40 339.06-39.55 339.51-39.1L339.51-39.1Q335.76-35.25 332.76-31.33 329.76-27.4 328.01-23.95L328.01-23.95Q327.06-22.05 326.28-20.4 325.51-18.75 324.86-17.13 324.21-15.5 323.68-13.88 323.16-12.25 322.71-10.45L322.71-10.45Q332.31-22.7 336.96-22.7L336.96-22.7Q338.26-22.7 339.76-21.85 341.26-21 342.41-19.55L342.41-19.55Q340.86-17.85 339.21-15.45 337.56-13.05 336.18-10.63 334.81-8.2 333.93-6.13 333.06-4.05 333.06-3.05L333.06-3.05Q333.06-2.55 333.21-2.38 333.36-2.2 333.86-2.2L333.86-2.2Q334.61-2.2 335.06-2.4 335.51-2.6 335.61-2.6L335.61-2.6Q335.86-2.2 335.91-2.05 335.96-1.9 335.96-1.8L335.96-1.8Q335.96-1.6 335.36-1.23 334.76-0.85 333.93-0.48 333.11-0.1 332.31 0.2 331.51 0.5 331.11 0.5L331.11 0.5Q330.61 0.5 330.11 0.23 329.61-0.05 329.23-0.5 328.86-0.95 328.63-1.5 328.41-2.05 328.41-2.65L328.41-2.65Q328.41-3.4 328.83-4.88 329.26-6.35 330.01-8.33 330.76-10.3 331.81-12.65 332.86-15 334.06-17.45L334.06-17.45Q334.06-17.65 333.86-17.65L333.86-17.65Q333.71-17.65 333.08-17.25 332.46-16.85 331.91-16.45L331.91-16.45Q330.11-15.1 328.28-13.13 326.46-11.15 324.73-8.8 323.01-6.45 321.48-3.83 319.96-1.2 318.86 1.45L318.86 1.45Q318.71 1.8 318.41 2.1 318.11 2.4 317.91 2.4L317.91 2.4Q317.76 2.4 317.48 2.05 317.21 1.7 316.98 1.18 316.76 0.65 316.56 0.1 316.36-0.45 316.36-0.85ZM360.16-20.7L360.16-20.7Q359.96-17.6 359.06-15.38 358.16-13.15 356.48-11.48 354.81-9.8 352.41-8.45 350.01-7.1 346.81-5.85L346.81-5.85Q346.81-5.55 346.78-5.23 346.76-4.9 346.76-4.55L346.76-4.55Q346.76-3.9 346.86-3.2 346.96-2.5 347.21-1.9 347.46-1.3 347.91-0.93 348.36-0.55 349.06-0.55L349.06-0.55Q350.41-0.55 351.71-1.15 353.01-1.75 354.18-2.63 355.36-3.5 356.38-4.53 357.41-5.55 358.21-6.4L358.21-6.4Q358.71-5.95 359.06-5.55L359.06-5.55Q356.81-2.55 354.13-0.58 351.46 1.4 349.06 1.95L349.06 1.95Q345.61 1.55 343.68-0.58 341.76-2.7 341.76-5.7L341.76-5.7Q341.76-7.75 342.33-9.88 342.91-12 343.93-13.98 344.96-15.95 346.33-17.7 347.71-19.45 349.28-20.75 350.86-22.05 352.53-22.8 354.21-23.55 355.86-23.55L355.86-23.55Q358.16-23.25 360.16-20.7ZM356.71-19.05L356.71-19.05Q355.36-18.85 353.91-17.95 352.46-17.05 351.18-15.55 349.91-14.05 348.86-12.05 347.81-10.05 347.21-7.75L347.21-7.75Q351.21-9.75 353.86-12.68 356.51-15.6 356.71-19.05ZM379.7-20.2L379.7-20.2Q380.2-20.2 380.88-20.03 381.55-19.85 382.1-19.58 382.65-19.3 383.03-19 383.4-18.7 383.4-18.45L383.4-18.45Q382.4-16.35 381.55-14.23 380.7-12.1 380.1-10.15 379.5-8.2 379.18-6.5 378.85-4.8 378.85-3.55L378.85-3.55Q378.85-2.15 379.15-1.23 379.45-0.3 380.15 0.1L380.15 0.1Q379.55 0.5 378.6 0.75 377.65 1 376.9 1L376.9 1Q374.2 1 374.2-2.7L374.2-2.7Q374.2-5.55 376.1-10.5L376.1-10.5Q375.1-8.2 373.8-6.18 372.5-4.15 371.15-2.6 369.8-1.05 368.43-0.08 367.05 0.9 365.9 1.1L365.9 1.1Q364.05 1 362.9-0.68 361.75-2.35 361.75-4.95L361.75-4.95Q361.75-7.75 362.95-10.85 364.15-13.95 366.03-16.6 367.9-19.25 370.1-21.03 372.3-22.8 374.35-22.9L374.35-22.9Q374.85-22.75 375.48-22.3 376.1-21.85 376.68-21.25 377.25-20.65 377.65-20.03 378.05-19.4 378.1-18.95L378.1-18.95Q376.1-18.65 373.98-17 371.85-15.35 370.13-13.03 368.4-10.7 367.3-8.05 366.2-5.4 366.2-3.1L366.2-3.1Q366.2-2.15 366.9-1.9L366.9-1.9Q368.35-2.2 370.25-4.38 372.15-6.55 374.85-11.1L374.85-11.1Q375.35-12 375.98-13.1 376.6-14.2 377.25-15.4 377.9-16.6 378.53-17.82 379.15-19.05 379.7-20.2ZM385.9-3.2L385.9-3.2Q385.9-5.4 386.95-9.38 388-13.35 389.9-18.65L389.9-18.65Q393-27.1 395.73-32.73 398.45-38.35 401.05-41.5L401.05-41.5Q401.65-41.4 402.53-41 403.4-40.6 404.25-40.13 405.1-39.65 405.78-39.15 406.45-38.65 406.65-38.35L406.65-38.35Q402.75-33.75 399.8-28.45 396.85-23.15 394.4-16.3L394.4-16.3Q392.3-10.4 391.2-5.68 390.1-0.95 390.1 2.2L390.1 2.2Q390.1 3.05 390.1 3.25 390.1 3.45 390.15 3.65L390.15 3.65Q389.45 3.55 388.95 3.3 388.45 3.05 388.3 2.7L388.3 2.7Q388.2 2.45 387.75 1.98 387.3 1.5 386.95 1.25L386.95 1.25Q386.5 0.95 386.2-0.33 385.9-1.6 385.9-3.2ZM403.55-19.15L400.7-19.15Q400.45-19.45 400.25-20.43 400.05-21.4 400.05-22.1L400.05-22.1Q401.35-22 402.55-21.93 403.75-21.85 404.75-21.8L404.75-21.8Q405.5-23.3 406.37-24.78 407.25-26.25 408.07-27.48 408.9-28.7 409.62-29.55 410.35-30.4 410.75-30.65L410.75-30.65Q411.25-30.65 412.02-30.48 412.8-30.3 413.6-30.03 414.4-29.75 415.05-29.45 415.7-29.15 415.95-28.85L415.95-28.85Q414.45-26.95 413.37-25.33 412.3-23.7 411.05-21.6L411.05-21.6Q412.05-21.6 413.07-21.65 414.1-21.7 415.15-21.8L415.15-21.8Q415.4-21.55 415.55-21.18 415.7-20.8 415.7-20.4L415.7-20.4Q413.25-19.5 409.75-19.4L409.75-19.4Q408.5-17 407.52-14.63 406.55-12.25 405.87-10.05 405.2-7.85 404.82-5.9 404.45-3.95 404.45-2.4L404.45-2.4Q404.45-0.2 406.1 0.05L406.1 0.05Q407.6-0.15 408.95-0.7 410.3-1.25 411.35-2.1L411.35-2.1Q411.65-1.65 411.7-1.35L411.7-1.35Q411.4-0.9 410.67-0.3 409.95 0.3 409.1 0.88 408.25 1.45 407.45 1.85 406.65 2.25 406.25 2.3L406.25 2.3Q405 2.25 403.75 1.75 402.5 1.25 401.47 0.5 400.45-0.25 399.8-1.18 399.15-2.1 399.15-3L399.15-3Q399.15-4.2 399.47-6.03 399.8-7.85 400.4-10 401-12.15 401.8-14.5 402.6-16.85 403.55-19.15L403.55-19.15ZM415.3-0.85L415.3-0.85Q415.3-2.6 415.65-4.98 416-7.35 416.67-10.05 417.35-12.75 418.27-15.7 419.2-18.65 420.35-21.6L420.35-21.6Q421.35-24.25 422.67-26.95 424-29.65 425.55-32.25 427.1-34.85 428.77-37.2 430.45-39.55 432.15-41.5L432.15-41.5Q432.95-41.5 433.87-41.3 434.8-41.1 435.67-40.78 436.55-40.45 437.27-40 438-39.55 438.45-39.1L438.45-39.1Q434.7-35.25 431.7-31.33 428.7-27.4 426.95-23.95L426.95-23.95Q426-22.05 425.22-20.4 424.45-18.75 423.8-17.13 423.15-15.5 422.62-13.88 422.1-12.25 421.65-10.45L421.65-10.45Q431.25-22.7 435.9-22.7L435.9-22.7Q437.2-22.7 438.7-21.85 440.2-21 441.35-19.55L441.35-19.55Q439.8-17.85 438.15-15.45 436.5-13.05 435.12-10.63 433.75-8.2 432.87-6.13 432-4.05 432-3.05L432-3.05Q432-2.55 432.15-2.38 432.3-2.2 432.8-2.2L432.8-2.2Q433.55-2.2 434-2.4 434.45-2.6 434.55-2.6L434.55-2.6Q434.8-2.2 434.85-2.05 434.9-1.9 434.9-1.8L434.9-1.8Q434.9-1.6 434.3-1.23 433.7-0.85 432.87-0.48 432.05-0.1 431.25 0.2 430.45 0.5 430.05 0.5L430.05 0.5Q429.55 0.5 429.05 0.23 428.55-0.05 428.17-0.5 427.8-0.95 427.57-1.5 427.35-2.05 427.35-2.65L427.35-2.65Q427.35-3.4 427.77-4.88 428.2-6.35 428.95-8.33 429.7-10.3 430.75-12.65 431.8-15 433-17.45L433-17.45Q433-17.65 432.8-17.65L432.8-17.65Q432.65-17.65 432.02-17.25 431.4-16.85 430.85-16.45L430.85-16.45Q429.05-15.1 427.22-13.13 425.4-11.15 423.67-8.8 421.95-6.45 420.42-3.83 418.9-1.2 417.8 1.45L417.8 1.45Q417.65 1.8 417.35 2.1 417.05 2.4 416.85 2.4L416.85 2.4Q416.7 2.4 416.42 2.05 416.15 1.7 415.92 1.18 415.7 0.65 415.5 0.1 415.3-0.45 415.3-0.85ZM459.99-7.75L459.99-7.75Q458.84-4.1 457.69-1.1 456.54 1.9 455.24 4.42 453.94 6.95 452.44 9.08 450.94 11.2 449.14 13.1L449.14 13.1Q446.84 15.5 444.39 16.78 441.94 18.05 439.49 18.05L439.49 18.05Q438.24 18.05 437.02 17.78 435.79 17.5 434.72 17.03 433.64 16.55 432.82 15.93 431.99 15.3 431.64 14.6L431.64 14.6Q431.64 14 432.34 13.55L432.34 13.55Q432.94 14.1 433.34 14.4 433.74 14.7 434.12 14.9 434.49 15.1 434.92 15.15 435.34 15.2 435.89 15.2L435.89 15.2Q438.74 15.2 441.47 13.53 444.19 11.85 446.62 8.78 449.04 5.7 451.04 1.33 453.04-3.05 454.44-8.45L454.44-8.45Q453.79-7.45 452.84-6 451.89-4.55 450.74-3.13 449.59-1.7 448.37-0.55 447.14 0.6 445.99 1L445.99 1Q445.19 0.95 444.32 0.68 443.44 0.4 442.67-0.1 441.89-0.6 441.29-1.3 440.69-2 440.49-2.9L440.49-2.9Q440.49-4.35 440.59-5.23 440.69-6.1 440.94-7.15L440.94-7.15Q441.39-9.05 442.27-11.45 443.14-13.85 444.32-16.18 445.49-18.5 446.92-20.53 448.34-22.55 449.89-23.7L449.89-23.7Q450.29-23.7 450.89-23.63 451.49-23.55 452.14-23.35 452.79-23.15 453.39-22.88 453.99-22.6 454.44-22.15L454.44-22.15Q453.89-21.65 452.04-18.8 450.19-15.95 447.94-10.6L447.94-10.6Q447.69-10.05 447.34-9 446.99-7.95 446.67-6.8 446.34-5.65 446.09-4.55 445.84-3.45 445.84-2.8L445.84-2.8Q445.84-2.4 445.97-2.2 446.09-2 446.19-1.9L446.19-1.9Q447.09-2.05 448.59-3.38 450.09-4.7 451.99-7.5L451.99-7.5Q453.19-9.3 454.19-11.08 455.19-12.85 456.17-14.65 457.14-16.45 458.19-18.35 459.24-20.25 460.44-22.25L460.44-22.25Q461.09-22.25 461.84-22.1 462.59-21.95 463.29-21.73 463.99-21.5 464.52-21.23 465.04-20.95 465.29-20.65L465.29-20.65Q463.74-17.35 462.39-14.2 461.04-11.05 459.99-7.75Z" opacity="1" transform="matrix(1,0,0,1,0,0)" fill="#000000" class="slogan-text-1" data-fill-palette-color="secondary" id="text-1"></path></svg></g></svg></g></svg></g></svg></g><g></g></svg></g><defs></defs></svg><rect width="395.52" height="242.50888542309843" fill="none" stroke="none" visibility="hidden"></rect></g></svg></g></svg>